<svg width="29" height="30" viewBox="0 0 29 30" fill="none" xmlns="http://www.w3.org/2000/svg">
<path d="M26.6786 17.25H2.32146C1.09738 17.25 0.107178 16.2438 0.107178 15.0633C0.107178 13.8827 1.09738 12.8133 2.32146 12.8133H26.6786C27.9027 12.8133 28.8929 13.8195 28.8929 15.0633C28.8929 16.3071 27.9034 17.25 26.6786 17.25ZM14.5 22.875C16.3317 22.875 17.8215 24.3888 17.8215 26.25C17.8215 28.1112 16.3317 29.625 14.5 29.625C12.6684 29.625 11.1786 28.1112 11.1786 26.25C11.1786 24.3888 12.6663 22.875 14.5 22.875ZM14.5 7.125C12.6684 7.125 11.1786 5.61117 11.1786 3.75C11.1786 1.88883 12.6684 0.375 14.5 0.375C16.3317 0.375 17.8215 1.88883 17.8215 3.75C17.8215 5.61117 16.3337 7.125 14.5 7.125Z" fill="#638FFF"/>
</svg>
